<svg xmlns="http://www.w3.org/2000/svg" xmlns:xlink="http://www.w3.org/1999/xlink" xmlns:svgjs="http://svgjs.dev/svgjs" version="1.1" viewBox="0.57 -0.5 1995.9 671.29"><g transform="matrix(1,0,0,1,-1.2121212121212466,-0.3554704153161765)"><svg xmlns="http://www.w3.org/2000/svg" xmlns:xlink="http://www.w3.org/1999/xlink" viewBox="0 0 396 133" data-background-color="#ffffff" preserveAspectRatio="xMidYMid meet" height="671" width="2000"><g id="tight-bounds" transform="matrix(1,0,0,1,0.2400000000000091,0.07045836846057796)"><svg viewBox="0 0 395.52 132.85908326307882" height="132.85908326307882" width="395.52"><g><svg viewBox="0 0 627.4452177859166 210.76505975131403" height="132.85908326307882" width="395.52"><g transform="matrix(1,0,0,1,231.92521778591666,62.72299644246442)"><svg viewBox="0 0 395.52 85.31906686638519" height="85.31906686638519" width="395.52"><g id="textblocktransform"><svg viewBox="0 0 395.52 85.31906686638519" height="85.31906686638519" width="395.52" id="textblock"><g><svg viewBox="0 0 395.52 44.81641089014264" height="44.81641089014264" width="395.52"><g transform="matrix(1,0,0,1,0,0)"><svg width="395.52" viewBox="3.45 -34.55 307.98431640625 34.9" height="44.81641089014264" data-palette-color="#096a2e"><g transform="matrix(1,0,0,1,0,0)"><g><svg width="15.5362109375" viewBox="1.78 -36.36 74.21 36.36" height="7.612" data-palette-color="#096a2e" id="scriptelement" x="295.89810546875" y="-34.55"><path d="M12.91-30.02L1.78-30.02 1.78-36.36 31.64-36.36 31.64-30.02 20.51-30.02 20.51 0 12.91 0 12.91-30.02ZM36.57 0L36.57-36.36 46.06-36.36 56.07-11.93 56.5-11.93 66.51-36.36 75.99-36.36 75.99 0 68.53 0 68.53-23.67 68.23-23.67 58.82-0.18 53.74-0.18 44.33-23.76 44.03-23.76 44.03 0 36.57 0Z" opacity="1" transform="matrix(1,0,0,1,0,0)" fill="#096a2e" class="undefined-123" data-fill-palette-color="primary" id="lv-123"/></svg></g></g><path d="M14.95-20.3L23.55-20.3Q26.2-20.3 27.28-19.45 28.35-18.6 28.35-16.55L28.35-16.55Q28.35-14.85 27.08-14.13 25.8-13.4 23.1-13.4L23.1-13.4 15-13.4 15-8.1 25.85-8.05Q28.65-8.05 29.88-7.23 31.1-6.4 31.1-4.3L31.1-4.3Q31.1-1.9 29.68-0.95 28.25 0 25.35 0L25.35 0 9.15 0Q6.2 0 4.83-1.58 3.45-3.15 3.45-7.15L3.45-7.15 3.45-28.25Q3.45-34.25 9.15-34.25L9.15-34.25 25.35-34.25Q28.25-34.25 29.68-33.35 31.1-32.45 31.1-30.1L31.1-30.1Q31.1-27.9 29.88-27.03 28.65-26.15 25.85-26.15L25.85-26.15 14.95-26.15 14.95-20.3ZM55.2-24.85L55.2-24.85Q55.2-25.9 54.32-26.65 53.45-27.4 52.25-27.4L52.25-27.4Q49.85-27.4 48.3-24.68 46.75-21.95 46.75-18.5L46.75-18.5Q46.75-15.85 47.75-13.73 48.75-11.6 50.65-10.35 52.55-9.1 55.05-9.1L55.05-9.1Q56.9-9.1 58.6-9.83 60.3-10.55 61.35-11.43 62.4-12.3 63.52-13.03 64.65-13.75 65.5-13.75L65.5-13.75Q66.6-13.75 67.4-12.88 68.2-12 68.2-11.05L68.2-11.05Q68.2-10 67.57-8.6 66.95-7.2 65.6-5.63 64.25-4.05 62.45-2.73 60.65-1.4 57.97-0.53 55.3 0.35 52.35 0.35L52.35 0.35Q48.45 0.35 45.12-0.83 41.8-2 39.35-4.17 36.9-6.35 35.5-9.65 34.1-12.95 34.1-17.05L34.1-17.05Q34.1-25.15 38.95-29.85 43.8-34.55 51.65-34.55L51.65-34.55Q55.65-34.55 59.05-33.2 62.45-31.85 64.45-29.45 66.45-27.05 66.45-24.2L66.45-24.2Q66.45-20.9 64.25-18.23 62.05-15.55 58.55-15.55L58.55-15.55Q56.55-15.55 54.95-16.65 53.35-17.75 53.35-19.8L53.35-19.8Q53.35-20.75 54.27-22.45 55.2-24.15 55.2-24.85ZM90.8-7L90.8-7Q92.5-7 93.72-8.5 94.95-10 95.47-12.2 96-14.4 96-16.9L96-16.9Q96-19.45 95.45-21.73 94.9-24 93.67-25.6 92.45-27.2 90.8-27.2L90.8-27.2Q89.2-27.2 88-25.6 86.8-24 86.2-21.7 85.6-19.4 85.6-16.9L85.6-16.9Q85.6-14.4 86.17-12.2 86.75-10 87.97-8.5 89.2-7 90.8-7ZM99.65-1.68Q95.7 0.3 90.77 0.3 85.85 0.3 81.92-1.68 78-3.65 75.65-7.6 73.3-11.55 73.3-16.9L73.3-16.9Q73.3-25 78.17-29.78 83.05-34.55 90.8-34.55 98.55-34.55 103.45-29.78 108.34-25 108.34-16.9L108.34-16.9Q108.34-11.55 105.97-7.6 103.59-3.65 99.65-1.68ZM117.09-17.3L124.04-17.3Q125.84-17.3 126.89-16.93 127.94-16.55 128.39-15.7 128.84-14.85 128.84-13.4L128.84-13.4Q128.84-11.55 127.59-10.83 126.34-10.1 123.59-10.1L123.59-10.1 116.74-10.1Q112.69-10.1 112.69-13.6L112.69-13.6Q112.69-17.3 117.09-17.3L117.09-17.3ZM166.74-28.7L166.74-7.5Q166.74-3.45 165.29-1.73 163.84 0 160.89 0L160.89 0Q157.99 0 156.64-1.58 155.29-3.15 155.29-7.15L155.29-7.15 155.24-12.8 145.04-12.8 145.04-7.5Q145.04-3.4 143.64-1.7 142.24 0 139.19 0L139.19 0Q136.29 0 134.94-1.58 133.59-3.15 133.59-7.15L133.59-7.15 133.44-28.25Q133.44-31.35 135.02-32.8 136.59-34.25 139.19-34.25L139.19-34.25Q142.19-34.25 143.62-33.15 145.04-32.05 145.04-28.7L145.04-28.7 145.04-20.3 155.19-20.3 155.19-28.25Q155.19-30.35 155.97-31.73 156.74-33.1 157.97-33.68 159.19-34.25 160.89-34.25L160.89-34.25Q163.79-34.25 165.27-33.15 166.74-32.05 166.74-28.7L166.74-28.7ZM189.44-7L189.44-7Q191.14-7 192.36-8.5 193.59-10 194.11-12.2 194.64-14.4 194.64-16.9L194.64-16.9Q194.64-19.45 194.09-21.73 193.54-24 192.31-25.6 191.09-27.2 189.44-27.2L189.44-27.2Q187.84-27.2 186.64-25.6 185.44-24 184.84-21.7 184.24-19.4 184.24-16.9L184.24-16.9Q184.24-14.4 184.81-12.2 185.39-10 186.61-8.5 187.84-7 189.44-7ZM198.29-1.68Q194.34 0.3 189.41 0.3 184.49 0.3 180.56-1.68 176.64-3.65 174.29-7.6 171.94-11.55 171.94-16.9L171.94-16.9Q171.94-25 176.81-29.78 181.69-34.55 189.44-34.55 197.19-34.55 202.09-29.78 206.99-25 206.99-16.9L206.99-16.9Q206.99-11.55 204.61-7.6 202.24-3.65 198.29-1.68ZM242.44-5.2L242.44-18.3 236.19-5.5Q235.39-3.9 234.49-3.23 233.59-2.55 232.34-2.55L232.34-2.55Q230.74-2.55 229.64-3.68 228.53-4.8 226.78-7.75L226.78-7.75 220.99-18.3 220.99-4.15Q220.99-2 220.01-1 219.03 0 217.09 0L217.09 0Q214.89 0 213.89-0.98 212.89-1.95 212.89-4.8L212.89-4.8 212.89-26.6Q212.89-30.45 214.64-32.4 216.39-34.35 220.53-34.35L220.53-34.35Q222.09-34.35 223.24-33.83 224.39-33.3 224.96-32.63 225.53-31.95 226.09-30.95L226.09-30.95 232.79-16.3 239.89-30.7Q241.74-34.3 246.54-34.3L246.54-34.3Q248.79-34.3 250.39-33.52 251.99-32.75 252.91-31.03 253.84-29.3 253.84-26.7L253.84-26.7 253.84-4.95Q253.79 0 247.59 0L247.59 0Q245.34 0 243.91-1.23 242.49-2.45 242.44-5.2L242.44-5.2ZM271.98-20.3L280.58-20.3Q283.23-20.3 284.31-19.45 285.38-18.6 285.38-16.55L285.38-16.55Q285.38-14.85 284.11-14.13 282.83-13.4 280.13-13.4L280.13-13.4 272.03-13.4 272.03-8.1 282.88-8.05Q285.68-8.05 286.91-7.23 288.13-6.4 288.13-4.3L288.13-4.3Q288.13-1.9 286.71-0.95 285.28 0 282.38 0L282.38 0 266.18 0Q263.23 0 261.86-1.58 260.48-3.15 260.48-7.15L260.48-7.15 260.48-28.25Q260.48-34.25 266.18-34.25L266.18-34.25 282.38-34.25Q285.28-34.25 286.71-33.35 288.13-32.45 288.13-30.1L288.13-30.1Q288.13-27.9 286.91-27.03 285.68-26.15 282.88-26.15L282.88-26.15 271.98-26.15 271.98-20.3Z" opacity="1" transform="matrix(1,0,0,1,0,0)" fill="#096a2e" class="wordmark-text-0" data-fill-palette-color="primary" id="text-0"/></svg></g></svg></g><g transform="matrix(1,0,0,1,0,55.39648990744396)"><svg viewBox="0 0 365.594045284344 29.92257695894124" height="29.92257695894124" width="365.594045284344"><g transform="matrix(1,0,0,1,0,0)"><svg width="365.594045284344" viewBox="3.75 -37.5 610.83 50" height="29.92257695894124" data-palette-color="#096a2e"><path d="M18.55-20.1L18.55-20.1Q24.1-18.05 24.1-10.85L24.1-10.85Q24.1-7.2 23.28-5.2 22.45-3.2 20.9-2.05L20.9-2.05Q18.05 0 12 0L12 0 3.75 0 3.75-35 11.25-35Q19.15-35 21.25-31L21.25-31Q22-29.6 22-27.6 22-25.6 20.98-23.5 19.95-21.4 18.55-20.1ZM13-18.15L7.15-18.15 7.15-2.75 11.75-2.75Q16.4-2.75 18.3-4L18.3-4Q20.7-5.55 20.7-10.15L20.7-10.15Q20.7-16.4 16.3-17.7L16.3-17.7Q14.85-18.15 13-18.15L13-18.15ZM16.15-20.7L16.15-20.7Q18.6-23.9 18.6-27 18.6-30.1 16.65-31.18 14.7-32.25 11-32.25L11-32.25 7.15-32.25 7.15-20.9 13.25-20.9Q14.75-20.9 16.15-20.7ZM35-3.2L35-3.2Q36.1-2.8 38.5-2.8 40.9-2.8 44.7-4.75L44.7-4.75 44.7-25 47.95-25.25 47.95 0 44.7 0 44.7-2.7Q41 0.15 37.15 0.15L37.15 0.15Q32.35 0.15 30.2-2.7L30.2-2.7Q29.1-4.1 29.1-6.6L29.1-6.6 29.1-25 32.35-25.25 32.35-7.45Q32.35-4.35 35-3.2ZM55.5-25L58.75-25.25 58.75 0 55.5 0 55.5-25ZM57-31.7Q56-31.7 55.47-32.35 54.95-33 54.95-34 54.95-35 55.52-35.63 56.1-36.25 57.1-36.25 58.1-36.25 58.72-35.63 59.35-35 59.35-33.9 59.35-32.8 58.67-32.25 58-31.7 57-31.7ZM69.09 0L65.84 0 65.84-37.25 69.09-37.5 69.09 0ZM86.09-25.25L86.09-25.25Q89.04-25.25 91.69-23.5L91.69-23.5 91.69-37.25 94.94-37.5 94.94-1.15 94.69-1.15Q93.14-0.5 89.52-0.15 85.89 0.2 84.49 0.2L84.49 0.2Q80.29 0.2 77.54-1.9L77.54-1.9Q73.69-4.8 73.69-11.45 73.69-18.1 77.27-21.68 80.84-25.25 86.09-25.25ZM91.69-3.2L91.69-21.35Q89.19-22.3 86.79-22.3L86.79-22.3Q82.19-22.3 79.56-19.5 76.94-16.7 76.94-11.55 76.94-6.4 79.79-4.3L79.79-4.3Q81.84-2.7 84.97-2.7 88.09-2.7 91.69-3.2L91.69-3.2ZM100.99-25L104.24-25.25 104.24 0 100.99 0 100.99-25ZM102.49-31.7Q101.49-31.7 100.96-32.35 100.44-33 100.44-34 100.44-35 101.01-35.63 101.59-36.25 102.59-36.25 103.59-36.25 104.21-35.63 104.84-35 104.84-33.9 104.84-32.8 104.16-32.25 103.49-31.7 102.49-31.7ZM114.09-25.25L114.09-22.25Q117.84-25 121.19-25.15L121.19-25.15Q124.24-25.15 125.89-24.4 127.54-23.65 128.61-22.28 129.69-20.9 129.69-18.4L129.69-18.4 129.69 0 126.44 0 126.44-17.55Q126.44-19.4 125.64-20.4L125.64-20.4Q124.04-22.25 120.74-22.25L120.74-22.25Q117.59-22.1 114.09-20.2L114.09-20.2 114.09 0 110.84 0 110.84-25 114.09-25.25ZM139.28-9.65L139.28-9.65Q135.58-11.5 135.58-16.6L135.58-16.6Q135.58-20.8 138.48-23 141.38-25.2 145.88-25.2L145.88-25.2Q147.08-25.2 148.83-24.95L148.83-24.95 158.23-25.2 158.13-23.3 152.68-23.3Q155.43-21.25 155.43-17.13 155.43-13 152.68-10.78 149.93-8.55 145.58-8.55L145.58-8.55Q142.78-8.55 140.93-9.05L140.93-9.05Q139.98-8.15 139.98-6.95L139.98-6.95Q139.98-5.25 141.86-4.5 143.73-3.75 146.28-3.4L146.28-3.4Q151.93-2.65 154.43-1.3L154.43-1.3Q158.03 0.7 158.03 4.85 158.03 9 154.08 11L154.08 11Q151.08 12.5 146.83 12.5 142.58 12.5 140.28 11.85L140.28 11.85Q134.23 10.1 134.23 5.35 134.23 0.6 139.58-2.7L139.58-2.7Q137.48-4.25 137.48-6.3 137.48-8.35 139.28-9.65ZM154.78 4.8L154.78 4.8Q154.78 1.55 150.48 0.3L150.48 0.3Q149.28-0.05 146.18-0.55 143.08-1.05 141.33-1.75L141.33-1.75Q137.48 1.45 137.48 4.45L137.48 4.45Q137.48 5.75 137.88 6.6 138.28 7.45 139.28 8.1L139.28 8.1Q141.48 9.6 145.98 9.6L145.98 9.6Q151.88 9.6 153.98 7.1L153.98 7.1Q154.78 6.15 154.78 4.8ZM152.03-17.25L152.03-17.25Q152.03-22.55 145.73-22.55L145.73-22.55Q142.73-22.55 140.78-21.18 138.83-19.8 138.83-16.98 138.83-14.15 140.23-12.68 141.63-11.2 144.96-11.2 148.28-11.2 150.16-12.8 152.03-14.4 152.03-17.25ZM179.13-19.9L178.23-22.3Q183.68-25 187.78-25.15L187.78-25.15Q191.03-25.15 192.8-24.33 194.58-23.5 195.68-22.03 196.78-20.55 196.78-17.9L196.78-17.9 196.78 0 193.53 0 193.53-1.9Q186.68 0.2 184.73 0.2L184.73 0.2Q184.63 0.2 184.58 0.2L184.58 0.2Q180.08 0.2 178.43-2.55L178.43-2.55Q177.83-3.55 177.75-4.5 177.68-5.45 177.68-6.1L177.68-6.1Q177.68-7.9 179.08-9.33 180.48-10.75 182.43-11.25L182.43-11.25Q185.73-12.1 193.53-12.75L193.53-12.75 193.53-16.8Q193.53-22.25 187.83-22.25L187.83-22.25Q183.83-22.25 179.13-19.9L179.13-19.9ZM180.73-5.7L180.73-5.7Q180.73-2.1 185.68-2.1L185.68-2.1Q189.63-2.1 193.53-3.8L193.53-3.8 193.53-10.95Q185.73-9.85 183.88-9.25L183.88-9.25Q180.73-8.25 180.73-5.7ZM235.92-35L235.67-32 221.12-32 221.12-18.85 234.62-18.85 234.37-15.85 221.12-15.85 221.12-3 236.92-3 236.67 0 217.72 0 217.72-35 235.92-35ZM256.37-16.4L256.12-21.65Q254.07-22.3 251.92-22.3L251.92-22.3Q247.57-22.3 244.95-19.5 242.32-16.7 242.32-11.6L242.32-11.6Q242.32-2.7 250.57-2.7L250.57-2.7Q253.87-2.7 257.37-3.8L257.37-3.8Q258.07-4 258.22-4.1L258.22-4.1 259.02-1.4Q257.27-0.35 252.67 0.1L252.67 0.1Q251.37 0.2 249.92 0.2L249.92 0.2Q245.67 0.2 242.92-1.9L242.92-1.9Q239.07-4.8 239.07-11.45 239.07-18.1 242.65-21.68 246.22-25.25 251.87-25.25L251.87-25.25Q253.67-25.25 255.7-24.78 257.72-24.3 258.82-23.3L258.82-23.3 258.82-16.75 256.37-16.4ZM263.17-6.4L263.17-6.4Q262.27-8.8 262.27-12L262.27-12Q262.27-18.15 265.72-21.68 269.17-25.2 274.37-25.2L274.37-25.2Q282.52-25.2 285.07-18.6L285.07-18.6Q286.02-16.2 286.02-13L286.02-13Q286.02-6.85 282.57-3.33 279.12 0.2 273.92 0.2L273.92 0.2Q265.77 0.2 263.17-6.4ZM265.52-12.35Q265.52-7.75 267.89-5.23 270.27-2.7 274.02-2.7 277.77-2.7 280.27-5.38 282.77-8.05 282.77-12.65 282.77-17.25 280.42-19.78 278.07-22.3 274.29-22.3 270.52-22.3 268.02-19.63 265.52-16.95 265.52-12.35ZM295.82-14.5L310.92-14.5 310.92-11.6 295.82-11.6 295.82-14.5ZM339.61-35L339.36-32 324.81-32 324.81-18.85 338.31-18.85 338.06-15.85 324.81-15.85 324.81 0 321.41 0 321.41-35 339.61-35ZM357.36-24.5L356.06-21.5Q355.26-21.95 354.36-21.95 353.46-21.95 353.36-21.9L353.36-21.9Q351.46-21.9 349.53-20.53 347.61-19.15 346.26-17.45L346.26-17.45 346.26 0 343.01 0 343.01-25 346.26-25.25 346.26-19.65Q348.11-22 349.41-22.95L349.41-22.95Q351.81-24.75 354.01-24.85L354.01-24.85Q354.31-24.9 355.11-24.9 355.91-24.9 357.36-24.5L357.36-24.5ZM360.91-25L364.16-25.25 364.16 0 360.91 0 360.91-25ZM362.41-31.7Q361.41-31.7 360.88-32.35 360.36-33 360.36-34 360.36-35 360.93-35.63 361.51-36.25 362.51-36.25 363.51-36.25 364.13-35.63 364.76-35 364.76-33.9 364.76-32.8 364.08-32.25 363.41-31.7 362.41-31.7ZM372.86-12.3L372.86-11.5Q372.86-2.7 381.25-2.7L381.25-2.7Q384.81-2.7 387.75-3.65L387.75-3.65Q388.5-3.9 388.81-4.05L388.81-4.05 389.56-1.4Q387.81-0.35 383.21 0.1L383.21 0.1Q381.91 0.2 380.46 0.2L380.46 0.2Q376.25 0.2 373.46-1.9L373.46-1.9Q369.61-4.75 369.61-11.4 369.61-18.05 373.08-21.63 376.56-25.2 381.5-25.2 386.46-25.2 388.96-22L388.96-22Q390.86-19.45 390.86-15.25L390.86-15.25Q390.86-14.25 390.75-13.15L390.75-13.15 372.91-13.15Q372.86-12.75 372.86-12.3L372.86-12.3ZM381.71-22.1L381.71-22.1Q378.61-22.1 376.41-20.23 374.21-18.35 373.36-15.4L373.36-15.4 387.91-15.4Q387.66-20.95 383.61-21.85L383.61-21.85Q382.71-22.1 381.71-22.1ZM398.4-25.25L398.4-22.25Q402.15-25 405.5-25.15L405.5-25.15Q408.55-25.15 410.2-24.4 411.85-23.65 412.93-22.28 414-20.9 414-18.4L414-18.4 414 0 410.75 0 410.75-17.55Q410.75-19.4 409.95-20.4L409.95-20.4Q408.35-22.25 405.05-22.25L405.05-22.25Q401.9-22.1 398.4-20.2L398.4-20.2 398.4 0 395.15 0 395.15-25 398.4-25.25ZM431.9-25.25L431.9-25.25Q434.85-25.25 437.5-23.5L437.5-23.5 437.5-37.25 440.75-37.5 440.75-1.15 440.5-1.15Q438.95-0.5 435.33-0.15 431.7 0.2 430.3 0.2L430.3 0.2Q426.1 0.2 423.35-1.9L423.35-1.9Q419.5-4.8 419.5-11.45 419.5-18.1 423.08-21.68 426.65-25.25 431.9-25.25ZM437.5-3.2L437.5-21.35Q435-22.3 432.6-22.3L432.6-22.3Q428-22.3 425.38-19.5 422.75-16.7 422.75-11.55 422.75-6.4 425.6-4.3L425.6-4.3Q427.65-2.7 430.78-2.7 433.9-2.7 437.5-3.2L437.5-3.2ZM449.5 0L446.25 0 446.25-37.25 449.5-37.5 449.5 0ZM462.4 0L453.5-25 457.15-25.25 464.6-2.35 474.2-25 477.7-25 461.1 12.5 458.05 12.5 463.55 0 462.4 0ZM501.64 0L498.49 0 498.49-35 501.64-35 501.64-18.85 518.64-18.85 518.64-35 521.79-35 521.79 0 518.64 0 518.64-15.85 501.64-15.85 501.64 0ZM527.79-6.4L527.79-6.4Q526.89-8.8 526.89-12L526.89-12Q526.89-18.15 530.34-21.68 533.79-25.2 538.99-25.2L538.99-25.2Q547.14-25.2 549.69-18.6L549.69-18.6Q550.64-16.2 550.64-13L550.64-13Q550.64-6.85 547.19-3.33 543.74 0.2 538.54 0.2L538.54 0.2Q530.39 0.2 527.79-6.4ZM530.14-12.35Q530.14-7.75 532.51-5.23 534.89-2.7 538.64-2.7 542.39-2.7 544.89-5.38 547.39-8.05 547.39-12.65 547.39-17.25 545.04-19.78 542.69-22.3 538.91-22.3 535.14-22.3 532.64-19.63 530.14-16.95 530.14-12.35ZM563.98-22.25L563.98-22.25Q561.18-22.1 557.93-20.4L557.93-20.4 557.93 0 554.68 0 554.68-25 557.93-25.25 557.93-22.45Q561.28-25 564.43-25.15L564.43-25.15Q569.73-25.15 571.73-22.5L571.73-22.5Q575.53-25 579.08-25.15L579.08-25.15Q582.13-25.15 583.78-24.4 585.43-23.65 586.51-22.28 587.58-20.9 587.58-18.4L587.58-18.4 587.58 0 584.33 0 584.33-17.55Q584.33-19.4 583.48-20.4L583.48-20.4Q581.93-22.25 579.08-22.25L579.08-22.25Q576.08-22.25 572.68-20.45L572.68-20.45Q572.93-19.45 572.93-18.4L572.93-18.4 572.93 0 569.68 0 569.68-17.55Q569.68-19.4 568.88-20.4L568.88-20.4Q567.28-22.25 563.98-22.25ZM596.58-12.3L596.58-11.5Q596.58-2.7 604.98-2.7L604.98-2.7Q608.53-2.7 611.48-3.65L611.48-3.65Q612.23-3.9 612.53-4.05L612.53-4.05 613.28-1.4Q611.53-0.35 606.93 0.1L606.93 0.1Q605.63 0.2 604.18 0.2L604.18 0.2Q599.98 0.2 597.18-1.9L597.18-1.9Q593.33-4.75 593.33-11.4 593.33-18.05 596.81-21.63 600.28-25.2 605.23-25.2 610.18-25.2 612.68-22L612.68-22Q614.58-19.45 614.58-15.25L614.58-15.25Q614.58-14.25 614.48-13.15L614.48-13.15 596.63-13.15Q596.58-12.75 596.58-12.3L596.58-12.3ZM605.43-22.1L605.43-22.1Q602.33-22.1 600.13-20.23 597.93-18.35 597.08-15.4L597.08-15.4 611.63-15.4Q611.38-20.95 607.33-21.85L607.33-21.85Q606.43-22.1 605.43-22.1Z" opacity="1" transform="matrix(1,0,0,1,0,0)" fill="#096a2e" class="slogan-text-1" data-fill-palette-color="secondary" id="text-1"/></svg></g></svg></g></svg></g></svg></g><g><svg viewBox="0 0 210.76505975131403 210.76505975131403" height="210.76505975131403" width="210.76505975131403"><g><svg/></g><g id="icon-0"><svg viewBox="0 0 210.76505975131403 210.76505975131403" height="210.76505975131403" width="210.76505975131403"><g><path d="M0 105.383c0-58.201 47.181-105.383 105.383-105.383 58.201 0 105.383 47.181 105.382 105.383 0 58.201-47.181 105.383-105.382 105.382-58.201 0-105.383-47.181-105.383-105.382zM105.383 206.723c55.969 0 101.341-45.372 101.34-101.34 0-55.969-45.372-101.341-101.34-101.341-55.969 0-101.341 45.372-101.341 101.341 0 55.969 45.372 101.341 101.341 101.34z" data-fill-palette-color="accent" fill="#096a2e" stroke="transparent"/><ellipse rx="104.32870457690045" ry="104.32870457690045" cx="105.38252987565701" cy="105.38252987565701" fill="#096a2e" stroke="transparent" stroke-width="0" fill-opacity="1" data-fill-palette-color="accent"/></g><g transform="matrix(1,0,0,1,41.62082072691609,48.55144128656184)"><svg viewBox="0 0 127.52341829748185 113.66217717819035" height="113.66217717819035" width="127.52341829748185"><g><svg xmlns="http://www.w3.org/2000/svg" xmlns:xlink="http://www.w3.org/1999/xlink" version="1.1" viewBox="2 7 92 82" x="0" y="0" height="113.66217717819035" width="127.52341829748185" class="icon-z$-0" data-fill-palette-color="quaternary" id="z$-0"><path d="M26 37c-5.512 0-10-4.488-10-10s4.488-10 10-10 10 4.488 10 10-4.488 10-10 10zM26 21c-3.308 0-6 2.692-6 6s2.692 6 6 6 6-2.692 6-6-2.692-6-6-6z" fill="#ffffff" data-fill-palette-color="quaternary"/><path d="M26 47c-1.104 0-2-0.896-2-2v-4c0-1.104 0.896-2 2-2s2 0.896 2 2v4c0 1.104-0.896 2-2 2z" fill="#ffffff" data-fill-palette-color="quaternary"/><path d="M26 15c-1.104 0-2-0.896-2-2v-4c0-1.104 0.896-2 2-2s2 0.896 2 2v4c0 1.104-0.896 2-2 2z" fill="#ffffff" data-fill-palette-color="quaternary"/><path d="M44 29h-4c-1.104 0-2-0.896-2-2s0.896-2 2-2h4c1.104 0 2 0.896 2 2s-0.896 2-2 2z" fill="#ffffff" data-fill-palette-color="quaternary"/><path d="M12 29h-4c-1.104 0-2-0.896-2-2s0.896-2 2-2h4c1.104 0 2 0.896 2 2s-0.896 2-2 2z" fill="#ffffff" data-fill-palette-color="quaternary"/><path d="M38.728 41.728c-0.512 0-1.024-0.196-1.416-0.584l-2.828-2.828c-0.78-0.78-0.78-2.048 0-2.828s2.048-0.78 2.828 0l2.828 2.828c0.78 0.78 0.78 2.048 0 2.828-0.392 0.388-0.9 0.584-1.412 0.584z" fill="#ffffff" data-fill-palette-color="quaternary"/><path d="M16.1 19.1c-0.512 0-1.024-0.196-1.416-0.584l-2.828-2.832c-0.78-0.78-0.78-2.048 0-2.828s2.048-0.78 2.828 0l2.828 2.832c0.78 0.78 0.78 2.048 0 2.828-0.388 0.392-0.9 0.584-1.412 0.584z" fill="#ffffff" data-fill-palette-color="quaternary"/><path d="M35.9 19.1c-0.512 0-1.024-0.196-1.416-0.584-0.78-0.78-0.78-2.048 0-2.828l2.828-2.832c0.78-0.78 2.048-0.78 2.828 0s0.78 2.048 0 2.828l-2.828 2.832c-0.392 0.392-0.9 0.584-1.412 0.584z" fill="#ffffff" data-fill-palette-color="quaternary"/><path d="M13.272 41.728c-0.512 0-1.024-0.196-1.416-0.584-0.78-0.78-0.78-2.048 0-2.828l2.828-2.828c0.78-0.78 2.048-0.78 2.828 0s0.78 2.048 0 2.828l-2.828 2.828c-0.388 0.388-0.9 0.584-1.412 0.584z" fill="#ffffff" data-fill-palette-color="quaternary"/><path d="M92 89h-88c-1.104 0-2-0.9-2-2s0.896-2 2-2h88c1.1 0 2 0.9 2 2s-0.9 2-2 2z" fill="#ffffff" data-fill-palette-color="quaternary"/><path d="M30 87c-1.104 0-2-0.9-2-2v-20c0-1.1 0.896-2 2-2s2 0.9 2 2v20c0 1.1-0.896 2-2 2z" fill="#ffffff" data-fill-palette-color="quaternary"/><path d="M16.684 80.316c-0.512 0-1.024-0.196-1.416-0.584-0.78-0.78-0.78-2.052 0-2.828l22.628-22.628c0.78-0.78 2.048-0.78 2.828 0 0.78 0.776 0.78 2.048 0 2.824l-22.628 22.632c-0.388 0.388-0.9 0.584-1.412 0.584z" fill="#ffffff" data-fill-palette-color="quaternary"/><path d="M54 87c-1.1 0-2-0.9-2-2v-20c0-1.1 0.9-2 2-2s2 0.9 2 2v20c0 1.1-0.9 2-2 2z" fill="#ffffff" data-fill-palette-color="quaternary"/><path d="M40.684 80.316c-0.512 0-1.024-0.196-1.416-0.584-0.78-0.78-0.78-2.052 0-2.828l22.632-22.628c0.776-0.78 2.048-0.78 2.828 0 0.776 0.776 0.776 2.048 0 2.824l-22.632 22.632c-0.388 0.388-0.9 0.584-1.412 0.584z" fill="#ffffff" data-fill-palette-color="quaternary"/><path d="M78 87c-1.1 0-2-0.9-2-2v-20c0-1.1 0.9-2 2-2s2 0.9 2 2v20c0 1.1-0.9 2-2 2z" fill="#ffffff" data-fill-palette-color="quaternary"/><path d="M64.684 80.316c-0.512 0-1.024-0.196-1.416-0.584-0.776-0.78-0.776-2.052 0-2.828l22.632-22.628c0.776-0.78 2.048-0.78 2.828 0 0.776 0.776 0.776 2.048 0 2.824l-22.632 22.632c-0.388 0.388-0.9 0.584-1.412 0.584z" fill="#ffffff" data-fill-palette-color="quaternary"/></svg></g></svg></g></svg></g></svg></g></svg></g><defs/></svg><rect width="395.52" height="132.85908326307882" fill="none" stroke="none" visibility="hidden"/></g></svg></g></svg>