<?xml version="1.0" encoding="UTF-8"?>
<svg version="1.1" viewBox=".57 -.5 1995.9 671.29" xmlns="http://www.w3.org/2000/svg">
<g transform="translate(-1.2121 -.35547)">
<svg width="2e3" height="671" data-background-color="#ffffff" viewBox="0 0 396 133" xmlns="http://www.w3.org/2000/svg" xmlns:xlink="http://www.w3.org/1999/xlink">
<g transform="translate(.24 .070458)">
<svg width="395.52" height="132.86" viewBox="0 0 395.52 132.85908326307882">
<svg width="395.52" height="132.86" viewBox="0 0 627.4452177859166 210.76505975131403">
<g transform="translate(231.93 62.723)">
<svg width="395.52" height="85.319" viewBox="0 0 395.52 85.31906686638519">
<svg width="395.52" height="85.319" viewBox="0 0 395.52 85.31906686638519">
<svg width="395.52" height="44.816" viewBox="0 0 395.52 44.81641089014264">
<g>
<svg width="395.52" height="44.816" data-palette-color="#096a2e" viewBox="3.45 -34.55 307.98431640625 34.9">
<g>
<svg x="295.9" y="-34.55" width="15.536" height="7.612" data-palette-color="#096a2e" viewBox="1.78 -36.36 74.21 36.36">
<path class="undefined-123" d="m12.91-30.02h-11.13v-6.34h29.86v6.34h-11.13v30.02h-7.6v-30.02zm23.66 30.02v-36.36h9.49l10.01 24.43h0.43l10.01-24.43h9.48v36.36h-7.46v-23.67h-0.3l-9.41 23.49h-5.08l-9.41-23.58h-0.3v23.76h-7.46z" fill="#096a2e" data-fill-palette-color="primary"/>
</svg>
</g>
<path class="wordmark-text-0" d="m14.95-20.3h8.6q2.65 0 3.73 0.85 1.07 0.85 1.07 2.9 0 1.7-1.27 2.42-1.28 0.73-3.98 0.73h-8.1v5.3l10.85 0.05q2.8 0 4.03 0.82 1.22 0.83 1.22 2.93 0 2.4-1.42 3.35-1.43 0.95-4.33 0.95h-16.2q-2.95 0-4.32-1.58-1.38-1.57-1.38-5.57v-21.1q0-6 5.7-6h16.2q2.9 0 4.33 0.9 1.42 0.9 1.42 3.25 0 2.2-1.22 3.07-1.23 0.88-4.03 0.88h-10.9v5.85zm40.25-4.55q0-1.05-0.88-1.8-0.87-0.75-2.07-0.75-2.4 0-3.95 2.72-1.55 2.73-1.55 6.18 0 2.65 1 4.77 1 2.13 2.9 3.38t4.4 1.25q1.85 0 3.55-0.73 1.7-0.72 2.75-1.6 1.05-0.87 2.17-1.6 1.13-0.72 1.98-0.72 1.1 0 1.9 0.87 0.8 0.88 0.8 1.83 0 1.05-0.63 2.45-0.62 1.4-1.97 2.97-1.35 1.58-3.15 2.9-1.8 1.33-4.48 2.2-2.67 0.88-5.62 0.88-3.9 0-7.23-1.18-3.32-1.17-5.77-3.34-2.45-2.18-3.85-5.48t-1.4-7.4q0-8.1 4.85-12.8t12.7-4.7q4 0 7.4 1.35t5.4 3.75 2 5.25q0 3.3-2.2 5.97-2.2 2.68-5.7 2.68-2 0-3.6-1.1t-1.6-3.15q0-0.95 0.92-2.65 0.93-1.7 0.93-2.4zm35.6 17.85q1.7 0 2.92-1.5 1.23-1.5 1.75-3.7 0.53-2.2 0.53-4.7 0-2.55-0.55-4.83-0.55-2.27-1.78-3.87-1.22-1.6-2.87-1.6-1.6 0-2.8 1.6t-1.8 3.9-0.6 4.8 0.57 4.7q0.58 2.2 1.8 3.7 1.23 1.5 2.83 1.5zm8.85 5.32q-3.95 1.98-8.88 1.98-4.92 0-8.85-1.98-3.92-1.97-6.27-5.92t-2.35-9.3q0-8.1 4.87-12.88 4.88-4.77 12.63-4.77t12.65 4.77q4.89 4.78 4.89 12.88 0 5.35-2.37 9.3-2.38 3.95-6.32 5.92zm17.44-15.62h6.95q1.8 0 2.85 0.37 1.05 0.38 1.5 1.23t0.45 2.3q0 1.85-1.25 2.57-1.25 0.73-4 0.73h-6.85q-4.05 0-4.05-3.5 0-3.7 4.4-3.7zm49.65-11.4v21.2q0 4.05-1.45 5.77-1.45 1.73-4.4 1.73-2.9 0-4.25-1.58-1.35-1.57-1.35-5.57l-0.05-5.65h-10.2v5.3q0 4.1-1.4 5.8t-4.45 1.7q-2.9 0-4.25-1.58-1.35-1.57-1.35-5.57l-0.15-21.1q0-3.1 1.58-4.55 1.57-1.45 4.17-1.45 3 0 4.43 1.1 1.42 1.1 1.42 4.45v8.4h10.15v-7.95q0-2.1 0.78-3.48 0.77-1.37 2-1.95 1.22-0.57 2.92-0.57 2.9 0 4.38 1.1 1.47 1.1 1.47 4.45zm22.7 21.7q1.7 0 2.92-1.5 1.23-1.5 1.75-3.7 0.53-2.2 0.53-4.7 0-2.55-0.55-4.83-0.55-2.27-1.78-3.87-1.22-1.6-2.87-1.6-1.6 0-2.8 1.6t-1.8 3.9-0.6 4.8 0.57 4.7q0.58 2.2 1.8 3.7 1.23 1.5 2.83 1.5zm8.85 5.32q-3.95 1.98-8.88 1.98-4.92 0-8.85-1.98-3.92-1.97-6.27-5.92t-2.35-9.3q0-8.1 4.87-12.88 4.88-4.77 12.63-4.77t12.65 4.77q4.9 4.78 4.9 12.88 0 5.35-2.38 9.3-2.37 3.95-6.32 5.92zm44.15-3.52v-13.1l-6.25 12.8q-0.8 1.6-1.7 2.27-0.9 0.68-2.15 0.68-1.6 0-2.7-1.13-1.11-1.12-2.86-4.07l-5.79-10.55v14.15q0 2.15-0.98 3.15t-2.92 1q-2.2 0-3.2-0.98-1-0.97-1-3.82v-21.8q0-3.85 1.75-5.8t5.89-1.95q1.56 0 2.71 0.52 1.15 0.53 1.72 1.2 0.57 0.68 1.13 1.68l6.7 14.65 7.1-14.4q1.85-3.6 6.65-3.6 2.25 0 3.85 0.78 1.6 0.77 2.52 2.49 0.93 1.73 0.93 4.33v21.75q-0.05 4.95-6.25 4.95-2.25 0-3.68-1.23-1.42-1.22-1.47-3.97zm29.54-15.1h8.6q2.65 0 3.73 0.85 1.07 0.85 1.07 2.9 0 1.7-1.27 2.42-1.28 0.73-3.98 0.73h-8.1v5.3l10.85 0.05q2.8 0 4.03 0.82 1.22 0.83 1.22 2.93 0 2.4-1.42 3.35-1.43 0.95-4.33 0.95h-16.2q-2.95 0-4.32-1.58-1.38-1.57-1.38-5.57v-21.1q0-6 5.7-6h16.2q2.9 0 4.33 0.9 1.42 0.9 1.42 3.25 0 2.2-1.22 3.07-1.23 0.88-4.03 0.88h-10.9v5.85z" fill="#096a2e" data-fill-palette-color="primary"/>
</svg>
</g>
</svg>
<g transform="translate(0 55.396)">
<svg width="365.59" height="29.923" viewBox="0 0 365.594045284344 29.92257695894124">
<g>
<svg width="365.59" height="29.923" data-palette-color="#096a2e" viewBox="3.75 -37.5 610.83 50">
<path class="slogan-text-1" d="m18.55-20.1q5.55 2.05 5.55 9.25 0 3.65-0.82 5.65-0.83 2-2.38 3.15-2.85 2.05-8.9 2.05h-8.25v-35h7.5q7.9 0 10 4 0.75 1.4 0.75 3.4t-1.02 4.1q-1.03 2.1-2.43 3.4zm-5.55 1.95h-5.85v15.4h4.6q4.65 0 6.55-1.25 2.4-1.55 2.4-6.15 0-6.25-4.4-7.55-1.45-0.45-3.3-0.45zm3.15-2.55q2.45-3.2 2.45-6.3t-1.95-4.18q-1.95-1.07-5.65-1.07h-3.85v11.35h6.1q1.5 0 2.9 0.2zm18.85 17.5q1.1 0.4 3.5 0.4t6.2-1.95v-20.25l3.25-0.25v25.25h-3.25v-2.7q-3.7 2.85-7.55 2.85-4.8 0-6.95-2.85-1.1-1.4-1.1-3.9v-18.4l3.25-0.25v17.8q0 3.1 2.65 4.25zm20.5-21.8 3.25-0.25v25.25h-3.25v-25zm1.5-6.7q-1 0-1.53-0.65-0.52-0.65-0.52-1.65t0.57-1.63q0.58-0.62 1.58-0.62t1.62 0.62q0.63 0.63 0.63 1.73t-0.68 1.65q-0.67 0.55-1.67 0.55zm12.09 31.7h-3.25v-37.25l3.25-0.25v37.5zm17-25.25q2.95 0 5.6 1.75v-13.75l3.25-0.25v36.35h-0.25q-1.55 0.65-5.17 1-3.63 0.35-5.03 0.35-4.2 0-6.95-2.1-3.85-2.9-3.85-9.55t3.58-10.23q3.57-3.57 8.82-3.57zm5.6 22.05v-18.15q-2.5-0.95-4.9-0.95-4.6 0-7.23 2.8-2.62 2.8-2.62 7.95t2.85 7.25q2.05 1.6 5.18 1.6 3.12 0 6.72-0.5zm9.3-21.8 3.25-0.25v25.25h-3.25v-25zm1.5-6.7q-1 0-1.53-0.65-0.52-0.65-0.52-1.65t0.57-1.63q0.58-0.62 1.58-0.62t1.62 0.62q0.63 0.63 0.63 1.73t-0.68 1.65q-0.67 0.55-1.67 0.55zm11.6 6.45v3q3.75-2.75 7.1-2.9 3.05 0 4.7 0.75t2.72 2.12q1.08 1.38 1.08 3.88v18.4h-3.25v-17.55q0-1.85-0.8-2.85-1.6-1.85-4.9-1.85-3.15 0.15-6.65 2.05v20.2h-3.25v-25l3.25-0.25zm25.19 15.6q-3.7-1.85-3.7-6.95 0-4.2 2.9-6.4t7.4-2.2q1.2 0 2.95 0.25l9.4-0.25-0.1 1.9h-5.45q2.75 2.05 2.75 6.17 0 4.13-2.75 6.35-2.75 2.23-7.1 2.23-2.8 0-4.65-0.5-0.95 0.9-0.95 2.1 0 1.7 1.88 2.45 1.87 0.75 4.42 1.1 5.65 0.75 8.15 2.1 3.6 2 3.6 6.15t-3.95 6.15q-3 1.5-7.25 1.5t-6.55-0.65q-6.05-1.75-6.05-6.5t5.35-8.05q-2.1-1.55-2.1-3.6t1.8-3.35zm15.5 14.45q0-3.25-4.3-4.5-1.2-0.35-4.3-0.85t-4.85-1.2q-3.85 3.2-3.85 6.2 0 1.3 0.4 2.15t1.4 1.5q2.2 1.5 6.7 1.5 5.9 0 8-2.5 0.8-0.95 0.8-2.3zm-2.75-22.05q0-5.3-6.3-5.3-3 0-4.95 1.37-1.95 1.38-1.95 4.2 0 2.83 1.4 4.3 1.4 1.48 4.73 1.48 3.32 0 5.2-1.6 1.87-1.6 1.87-4.45zm27.1-2.65-0.9-2.4q5.45-2.7 9.55-2.85 3.25 0 5.02 0.82 1.78 0.83 2.88 2.3 1.1 1.48 1.1 4.13v17.9h-3.25v-1.9q-6.85 2.1-8.8 2.1-0.1 0-0.15 0-4.5 0-6.15-2.75-0.6-1-0.68-1.95-0.07-0.95-0.07-1.6 0-1.8 1.4-3.23 1.4-1.42 3.35-1.92 3.3-0.85 11.1-1.5v-4.05q0-5.45-5.7-5.45-4 0-8.7 2.35zm1.6 14.2q0 3.6 4.95 3.6 3.95 0 7.85-1.7v-7.15q-7.8 1.1-9.65 1.7-3.15 1-3.15 3.55zm55.19-29.3-0.25 3h-14.55v13.15h13.5l-0.25 3h-13.25v12.85h15.8l-0.25 3h-18.95v-35h18.2zm20.45 18.6-0.25-5.25q-2.05-0.65-4.2-0.65-4.35 0-6.97 2.8-2.63 2.8-2.63 7.9 0 8.9 8.25 8.9 3.3 0 6.8-1.1 0.7-0.2 0.85-0.3l0.8 2.7q-1.75 1.05-6.35 1.5-1.3 0.1-2.75 0.1-4.25 0-7-2.1-3.85-2.9-3.85-9.55t3.58-10.23q3.57-3.57 9.22-3.57 1.8 0 3.83 0.47 2.02 0.48 3.12 1.48v6.55l-2.45 0.35zm6.8 10q-0.9-2.4-0.9-5.6 0-6.15 3.45-9.68 3.45-3.52 8.65-3.52 8.15 0 10.7 6.6 0.95 2.4 0.95 5.6 0 6.15-3.45 9.67-3.45 3.53-8.65 3.53-8.15 0-10.75-6.6zm2.35-5.95q0 4.6 2.37 7.12 2.38 2.53 6.13 2.53t6.25-2.68q2.5-2.67 2.5-7.27t-2.35-7.13q-2.35-2.52-6.13-2.52-3.77 0-6.27 2.67-2.5 2.68-2.5 7.28zm30.3-2.15h15.1v2.9h-15.1v-2.9zm43.79-20.5-0.25 3h-14.55v13.15h13.5l-0.25 3h-13.25v15.85h-3.4v-35h18.2zm17.75 10.5-1.3 3q-0.8-0.45-1.7-0.45t-1 0.05q-1.9 0-3.83 1.37-1.92 1.38-3.27 3.08v17.45h-3.25v-25l3.25-0.25v5.6q1.85-2.35 3.15-3.3 2.4-1.8 4.6-1.9 0.3-0.05 1.1-0.05t2.25 0.4zm3.55-0.5 3.25-0.25v25.25h-3.25v-25zm1.5-6.7q-1 0-1.53-0.65-0.52-0.65-0.52-1.65t0.57-1.63q0.58-0.62 1.58-0.62t1.62 0.62q0.63 0.63 0.63 1.73t-0.68 1.65q-0.67 0.55-1.67 0.55zm10.45 19.4v0.8q0 8.8 8.39 8.8 3.56 0 6.5-0.95 0.75-0.25 1.06-0.4l0.75 2.65q-1.75 1.05-6.35 1.5-1.3 0.1-2.75 0.1-4.21 0-7-2.1-3.85-2.85-3.85-9.5t3.47-10.23q3.48-3.57 8.42-3.57 4.96 0 7.46 3.2 1.9 2.55 1.9 6.75 0 1-0.11 2.1h-17.84q-0.05 0.4-0.05 0.85zm8.85-9.8q-3.1 0-5.3 1.87-2.2 1.88-3.05 4.83h14.55q-0.25-5.55-4.3-6.45-0.9-0.25-1.9-0.25zm16.69-3.15v3q3.75-2.75 7.1-2.9 3.05 0 4.7 0.75t2.73 2.12q1.07 1.38 1.07 3.88v18.4h-3.25v-17.55q0-1.85-0.8-2.85-1.6-1.85-4.9-1.85-3.15 0.15-6.65 2.05v20.2h-3.25v-25l3.25-0.25zm33.5 0q2.95 0 5.6 1.75v-13.75l3.25-0.25v36.35h-0.25q-1.55 0.65-5.17 1-3.63 0.35-5.03 0.35-4.2 0-6.95-2.1-3.85-2.9-3.85-9.55t3.58-10.23q3.57-3.57 8.82-3.57zm5.6 22.05v-18.15q-2.5-0.95-4.9-0.95-4.6 0-7.22 2.8-2.63 2.8-2.63 7.95t2.85 7.25q2.05 1.6 5.18 1.6 3.12 0 6.72-0.5zm12 3.2h-3.25v-37.25l3.25-0.25v37.5zm12.9 0-8.9-25 3.65-0.25 7.45 22.9 9.6-22.65h3.5l-16.6 37.5h-3.05l5.5-12.5h-1.15zm39.24 0h-3.15v-35h3.15v16.15h17v-16.15h3.15v35h-3.15v-15.85h-17v15.85zm26.15-6.4q-0.9-2.4-0.9-5.6 0-6.15 3.45-9.68 3.45-3.52 8.65-3.52 8.15 0 10.7 6.6 0.95 2.4 0.95 5.6 0 6.15-3.45 9.67-3.45 3.53-8.65 3.53-8.15 0-10.75-6.6zm2.35-5.95q0 4.6 2.37 7.12 2.38 2.53 6.13 2.53t6.25-2.68q2.5-2.67 2.5-7.27t-2.35-7.13q-2.35-2.52-6.13-2.52-3.77 0-6.27 2.67-2.5 2.68-2.5 7.28zm33.84-9.9q-2.8 0.15-6.05 1.85v20.4h-3.25v-25l3.25-0.25v2.8q3.35-2.55 6.5-2.7 5.3 0 7.3 2.65 3.8-2.5 7.35-2.65 3.05 0 4.7 0.75t2.73 2.12q1.07 1.38 1.07 3.88v18.4h-3.25v-17.55q0-1.85-0.85-2.85-1.55-1.85-4.4-1.85-3 0-6.4 1.8 0.25 1 0.25 2.05v18.4h-3.25v-17.55q0-1.85-0.8-2.85-1.6-1.85-4.9-1.85zm32.6 9.95v0.8q0 8.8 8.4 8.8 3.55 0 6.5-0.95 0.75-0.25 1.05-0.4l0.75 2.65q-1.75 1.05-6.35 1.5-1.3 0.1-2.75 0.1-4.2 0-7-2.1-3.85-2.85-3.85-9.5t3.48-10.23q3.47-3.57 8.42-3.57t7.45 3.2q1.9 2.55 1.9 6.75 0 1-0.1 2.1h-17.85q-0.05 0.4-0.05 0.85zm8.85-9.8q-3.1 0-5.3 1.87-2.2 1.88-3.05 4.83h14.55q-0.25-5.55-4.3-6.45-0.9-0.25-1.9-0.25z" fill="#096a2e" data-fill-palette-color="secondary"/>
</svg>
</g>
</svg>
</g>
</svg>
</svg>
</g>
<svg width="210.77" height="210.77" viewBox="0 0 210.76505975131403 210.76505975131403">
<svg/>
<svg width="210.77" height="210.77" viewBox="0 0 210.76505975131403 210.76505975131403">
<g fill="#096a2e" stroke="transparent">
<path d="m0 105.38c0-58.201 47.181-105.38 105.38-105.38 58.201 0 105.38 47.181 105.38 105.38 0 58.201-47.181 105.38-105.38 105.38-58.201 0-105.38-47.181-105.38-105.38zm105.38 101.34c55.969 0 101.34-45.372 101.34-101.34 0-55.969-45.372-101.34-101.34-101.34-55.969 0-101.34 45.372-101.34 101.34s45.372 101.34 101.34 101.34z" data-fill-palette-color="accent"/>
<ellipse cx="105.38" cy="105.38" rx="104.33" ry="104.33" stroke-width="0" data-fill-palette-color="accent"/>
</g>
<g transform="translate(41.621 48.551)">
<svg width="127.52" height="113.66" viewBox="0 0 127.52341829748185 113.66217717819035">
<svg class="icon-z$-0" width="127.52" height="113.66" fill="#fff" data-fill-palette-color="quaternary" version="1.1" viewBox="2 7 92 82" xmlns="http://www.w3.org/2000/svg" xmlns:xlink="http://www.w3.org/1999/xlink">
<path d="m26 37c-5.512 0-10-4.488-10-10s4.488-10 10-10 10 4.488 10 10-4.488 10-10 10zm0-16c-3.308 0-6 2.692-6 6s2.692 6 6 6 6-2.692 6-6-2.692-6-6-6z" data-fill-palette-color="quaternary"/>
<path d="m26 47c-1.104 0-2-0.896-2-2v-4c0-1.104 0.896-2 2-2s2 0.896 2 2v4c0 1.104-0.896 2-2 2z" data-fill-palette-color="quaternary"/>
<path d="m26 15c-1.104 0-2-0.896-2-2v-4c0-1.104 0.896-2 2-2s2 0.896 2 2v4c0 1.104-0.896 2-2 2z" data-fill-palette-color="quaternary"/>
<path d="m44 29h-4c-1.104 0-2-0.896-2-2s0.896-2 2-2h4c1.104 0 2 0.896 2 2s-0.896 2-2 2z" data-fill-palette-color="quaternary"/>
<path d="m12 29h-4c-1.104 0-2-0.896-2-2s0.896-2 2-2h4c1.104 0 2 0.896 2 2s-0.896 2-2 2z" data-fill-palette-color="quaternary"/>
<path d="m38.728 41.728c-0.512 0-1.024-0.196-1.416-0.584l-2.828-2.828c-0.78-0.78-0.78-2.048 0-2.828s2.048-0.78 2.828 0l2.828 2.828c0.78 0.78 0.78 2.048 0 2.828-0.392 0.388-0.9 0.584-1.412 0.584z" data-fill-palette-color="quaternary"/>
<path d="m16.1 19.1c-0.512 0-1.024-0.196-1.416-0.584l-2.828-2.832c-0.78-0.78-0.78-2.048 0-2.828s2.048-0.78 2.828 0l2.828 2.832c0.78 0.78 0.78 2.048 0 2.828-0.388 0.392-0.9 0.584-1.412 0.584z" data-fill-palette-color="quaternary"/>
<path d="m35.9 19.1c-0.512 0-1.024-0.196-1.416-0.584-0.78-0.78-0.78-2.048 0-2.828l2.828-2.832c0.78-0.78 2.048-0.78 2.828 0s0.78 2.048 0 2.828l-2.828 2.832c-0.392 0.392-0.9 0.584-1.412 0.584z" data-fill-palette-color="quaternary"/>
<path d="m13.272 41.728c-0.512 0-1.024-0.196-1.416-0.584-0.78-0.78-0.78-2.048 0-2.828l2.828-2.828c0.78-0.78 2.048-0.78 2.828 0s0.78 2.048 0 2.828l-2.828 2.828c-0.388 0.388-0.9 0.584-1.412 0.584z" data-fill-palette-color="quaternary"/>
<path d="m92 89h-88c-1.104 0-2-0.9-2-2s0.896-2 2-2h88c1.1 0 2 0.9 2 2s-0.9 2-2 2z" data-fill-palette-color="quaternary"/>
<path d="m30 87c-1.104 0-2-0.9-2-2v-20c0-1.1 0.896-2 2-2s2 0.9 2 2v20c0 1.1-0.896 2-2 2z" data-fill-palette-color="quaternary"/>
<path d="m16.684 80.316c-0.512 0-1.024-0.196-1.416-0.584-0.78-0.78-0.78-2.052 0-2.828l22.628-22.628c0.78-0.78 2.048-0.78 2.828 0 0.78 0.776 0.78 2.048 0 2.824l-22.628 22.632c-0.388 0.388-0.9 0.584-1.412 0.584z" data-fill-palette-color="quaternary"/>
<path d="m54 87c-1.1 0-2-0.9-2-2v-20c0-1.1 0.9-2 2-2s2 0.9 2 2v20c0 1.1-0.9 2-2 2z" data-fill-palette-color="quaternary"/>
<path d="m40.684 80.316c-0.512 0-1.024-0.196-1.416-0.584-0.78-0.78-0.78-2.052 0-2.828l22.632-22.628c0.776-0.78 2.048-0.78 2.828 0 0.776 0.776 0.776 2.048 0 2.824l-22.632 22.632c-0.388 0.388-0.9 0.584-1.412 0.584z" data-fill-palette-color="quaternary"/>
<path d="m78 87c-1.1 0-2-0.9-2-2v-20c0-1.1 0.9-2 2-2s2 0.9 2 2v20c0 1.1-0.9 2-2 2z" data-fill-palette-color="quaternary"/>
<path d="m64.684 80.316c-0.512 0-1.024-0.196-1.416-0.584-0.776-0.78-0.776-2.052 0-2.828l22.632-22.628c0.776-0.78 2.048-0.78 2.828 0 0.776 0.776 0.776 2.048 0 2.824l-22.632 22.632c-0.388 0.388-0.9 0.584-1.412 0.584z" data-fill-palette-color="quaternary"/>
</svg>
</svg>
</g>
</svg>
</svg>
</svg>
</svg>
<rect width="395.52" height="132.86" fill="none" visibility="hidden"/>
</g>
</svg>
</g>
</svg>
